<?xml version="1.0" standalone="no"?>
<!DOCTYPE svg PUBLIC "-//W3C//DTD SVG 20010904//EN"
 "http://www.w3.org/TR/2001/REC-SVG-20010904/DTD/svg10.dtd">
<svg version="1.0" xmlns="http://www.w3.org/2000/svg"
 width="2202.000000pt" height="2202.000000pt" viewBox="0 0 2202.000000 2202.000000"
 preserveAspectRatio="xMidYMid meet">
<metadata>
Created by potrace 1.14, written by Peter Selinger 2001-2017
</metadata>
<g transform="translate(0.000000,2202.000000) scale(0.100000,-0.100000)"
fill="#000000" stroke="none">
<path d="M10668 21625 c-2 -2 -75 -6 -163 -10 -88 -4 -176 -8 -195 -10 -19 -1
-78 -6 -130 -9 -52 -4 -111 -9 -130 -11 -19 -2 -62 -7 -95 -10 -141 -13 -294
-31 -390 -45 -33 -5 -80 -12 -105 -15 -54 -7 -87 -13 -160 -25 -30 -5 -71 -12
-90 -15 -59 -9 -352 -65 -401 -76 -26 -6 -53 -12 -60 -13 -8 -1 -41 -8 -74
-15 -33 -8 -64 -14 -70 -16 -5 -1 -28 -7 -50 -13 -22 -6 -51 -13 -65 -16 -22
-4 -126 -31 -355 -91 -33 -8 -87 -24 -120 -34 -33 -10 -94 -29 -135 -41 -408
-122 -936 -323 -1350 -515 -217 -101 -627 -307 -665 -335 -5 -4 -41 -24 -80
-45 -167 -90 -666 -396 -711 -437 -11 -10 -23 -18 -27 -18 -8 0 -409 -281
-427 -300 -3 -3 -59 -46 -124 -95 -104 -78 -257 -201 -431 -348 -265 -223
-650 -592 -891 -853 -138 -150 -181 -197 -201 -220 -10 -12 -37 -44 -59 -70
-23 -27 -52 -60 -64 -74 -12 -14 -48 -56 -79 -95 -31 -38 -62 -77 -70 -85 -16
-17 -237 -299 -266 -340 -11 -15 -75 -104 -141 -196 -104 -144 -192 -275 -369
-549 -38 -59 -115 -186 -115 -190 0 -1 -25 -44 -55 -94 -30 -51 -55 -94 -55
-97 0 -2 -11 -21 -24 -42 -103 -164 -417 -806 -528 -1082 -44 -110 -45 -112
-62 -152 -22 -51 -111 -285 -147 -388 -38 -108 -129 -380 -134 -400 -2 -8 -19
-67 -39 -130 -33 -109 -132 -472 -140 -515 -2 -11 -18 -81 -35 -156 -18 -75
-33 -145 -35 -156 -3 -11 -16 -78 -30 -149 -27 -140 -81 -459 -91 -539 -4 -27
-8 -57 -10 -65 -7 -24 -54 -467 -60 -565 -4 -49 -8 -101 -10 -115 -12 -80 -20
-390 -20 -775 0 -425 6 -607 30 -870 16 -183 19 -207 29 -295 3 -19 7 -66 11
-105 4 -38 8 -72 10 -75 2 -3 6 -34 10 -70 3 -36 8 -72 10 -80 2 -8 7 -35 10
-60 9 -67 65 -399 75 -445 4 -22 13 -65 19 -95 18 -89 19 -93 31 -145 7 -27
14 -63 17 -80 2 -16 16 -75 30 -130 14 -55 26 -107 28 -116 28 -140 250 -873
295 -974 5 -11 20 -51 34 -90 28 -80 132 -350 146 -380 5 -11 38 -87 73 -170
36 -82 81 -186 102 -230 57 -124 135 -288 145 -305 5 -8 19 -35 31 -60 73
-145 273 -507 336 -609 13 -20 26 -43 30 -51 3 -8 18 -33 32 -55 14 -22 34
-55 44 -74 10 -18 27 -42 38 -54 10 -11 19 -24 19 -29 0 -8 131 -208 201 -308
21 -30 55 -80 76 -110 80 -119 227 -314 391 -522 55 -69 99 -129 96 -132 -2
-3 -1 -4 2 -2 3 2 54 -53 112 -122 59 -70 114 -134 122 -143 8 -8 35 -38 59
-65 195 -220 467 -495 772 -779 50 -47 278 -245 394 -342 158 -132 437 -345
635 -485 237 -167 573 -386 647 -422 13 -6 23 -14 23 -18 0 -5 4 -8 9 -8 5 0
42 -20 83 -44 194 -118 704 -384 953 -499 311 -142 683 -290 1020 -405 113
-39 332 -109 365 -117 8 -2 62 -18 120 -35 185 -54 604 -159 700 -175 19 -3
49 -10 65 -15 17 -5 44 -11 60 -14 50 -8 249 -46 265 -50 8 -3 35 -7 60 -10
25 -3 56 -8 70 -11 36 -7 355 -53 415 -60 47 -5 71 -8 163 -20 20 -2 66 -7
102 -10 36 -3 85 -7 110 -10 304 -29 548 -39 960 -39 320 0 607 7 735 19 22 2
78 6 125 10 47 4 99 8 115 9 17 2 65 6 107 10 42 4 87 9 99 11 13 3 51 7 86
10 70 6 79 7 233 29 58 9 123 18 145 21 23 3 50 7 60 9 11 2 40 7 65 11 25 4
54 9 65 11 10 2 37 6 60 9 22 3 47 8 55 10 8 2 29 7 45 10 17 2 41 7 55 10 14
3 36 7 50 10 14 2 59 11 100 20 81 18 88 19 170 36 167 34 573 143 865 232
243 74 606 207 885 322 198 82 204 84 325 141 44 20 114 52 155 71 94 44 375
184 455 228 33 18 101 55 150 82 93 51 120 67 218 124 32 19 68 39 79 46 178
99 683 439 942 632 118 89 220 166 228 173 7 7 47 40 88 72 41 33 77 63 80 66
3 3 41 35 84 70 43 36 86 72 96 80 9 8 52 47 96 85 247 218 589 553 800 785
195 215 392 444 433 504 8 12 18 23 21 26 14 11 198 250 317 413 114 155 352
508 447 662 75 122 164 273 206 350 23 44 46 85 50 90 28 39 256 486 334 655
143 308 280 643 382 935 19 55 38 107 41 115 3 8 7 20 8 25 2 6 18 57 38 115
50 152 177 585 192 657 2 10 15 65 30 123 22 90 45 189 61 265 2 11 6 31 9 45
3 14 7 36 10 50 3 14 7 36 10 50 6 29 7 35 29 150 8 47 18 101 21 120 3 19 10
58 15 85 5 28 12 70 15 95 3 25 8 56 11 70 2 14 6 41 9 60 2 19 10 85 19 145
21 157 36 298 51 485 3 41 8 96 10 121 14 150 20 367 20 779 0 415 -3 531 -20
730 -3 30 -7 89 -10 130 -3 41 -10 120 -16 175 -17 168 -18 179 -34 295 -2 14
-7 52 -10 85 -4 33 -9 69 -10 80 -8 50 -17 104 -25 155 -5 30 -12 73 -15 95
-3 22 -8 51 -11 65 -3 14 -7 36 -9 50 -5 29 -40 211 -56 285 -5 28 -12 59 -14
70 -162 788 -472 1676 -861 2460 -105 214 -357 677 -386 714 -8 9 -24 36 -38
61 -24 46 -42 75 -195 310 -251 387 -627 883 -930 1225 -282 320 -659 696
-950 950 -44 39 -82 72 -85 75 -3 3 -34 30 -70 60 -36 30 -67 57 -70 61 -3 3
-66 54 -140 113 -74 59 -142 113 -150 119 -43 36 -339 253 -430 317 -186 130
-420 284 -598 391 -84 51 -343 199 -349 199 -3 0 -14 6 -22 14 -24 20 -599
316 -615 316 -2 0 -46 20 -97 44 -52 24 -132 61 -179 81 -47 20 -98 43 -115
50 -32 14 -303 122 -450 178 -71 27 -479 164 -650 217 -83 26 -365 104 -415
115 -8 2 -80 19 -160 38 -119 29 -354 80 -470 103 -14 2 -36 7 -50 9 -57 11
-380 65 -421 70 -24 3 -55 7 -69 10 -14 2 -50 7 -80 11 -30 4 -57 8 -60 9 -3
1 -41 5 -85 9 -44 5 -88 10 -98 12 -10 2 -51 6 -90 9 -95 7 -171 14 -232 20
-27 3 -90 7 -140 10 -49 4 -119 8 -155 11 -73 5 -917 14 -922 9z"/>
</g>
</svg>
